# xmcd
#
# Track frame offsets: 
#        150
#        22537
#        42502
#        64340
#        89772
#        106367
#        122445
#        137765
#        154985
#        179650
#        200390
#        220300
#
# Disc length: 3318 seconds
#
# Revision: 2
# Processed by: cddbd v1.5.2PL0 Copyright (c) Steve Scherf et al.
# Submitted via: ExactAudioCopy v1.0b1
#
DISCID=ad0cf40c
DTITLE=Elvin Bishop and Little Smokey Smothers - That's My Partner!
DYEAR=2000
DGENRE=Blues
TTITLE0=That's My Partner
TTITLE1=Roll Your Moneymaker
TTITLE2=Slow Down
TTITLE3=Little Red Rooster
TTITLE4=Hello, Baby
TTITLE5=Middle Aged Man
TTITLE6=The Skin They're In
TTITLE7=Stomp
TTITLE8=Annie Mae
TTITLE9=Pleading With You
TTITLE10=Dirty Drawers
TTITLE11=Travelin' Shoes
EXTD=
EXTT0=
EXTT1=
EXTT2=
EXTT3=
EXTT4=
EXTT5=
EXTT6=
EXTT7=
EXTT8=
EXTT9=
EXTT10=
EXTT11=
PLAYORDER=
